/* XPM */
static char * E_wall2_xpm[] = {
"132 132 23 1",
" 	c #000000",
".	c #051D00",
"+	c #030F00",
"@	c #002A00",
"#	c #003600",
"$	c #004200",
"%	c #004B00",
"&	c #003C00",
"*	c #002C00",
"=	c #003000",
"-	c #032400",
";	c #004D00",
">	c #005100",
",	c #006400",
"'	c #005D00",
")	c #005700",
"!	c #006A00",
"~	c #051F00",
"{	c #006E00",
"]	c #007F00",
"^	c #007700",
"/	c #007000",
"(	c #008300",
"                                                                                                                                    ",
"                                                                                                                                    ",
"  .++@@##$$$$$$%%&%%%%%%%%$$$%$&&%&&$$&@*==*@--+...$$$$$$$$$$$$$$$$$$$$$$$$$$$$$$$$$$$$$$$$$$$$$$&&&&##---.....**#############....  ",
"  .++@@##$%%$$$%$&;>;%%$&&&&&$%#=$&&&&#@*==*@--+..$$;;%%%%%%;;;;>>>>>>;;;;;;;;%%%%%%%%%%%%%%%%$$$$&&&&##---...**;;>>%%%%$$&&##=...  ",
"  +++$$$$$>;%$$;#$%%$$;&>%&&$&##=#$&$&#=*@-@@=-+++,'>>>>%;%;;)'>))!))'$'%%>';>;;%%;$$)%%>;;>;;$$$##$#==#@~-  +=;{]{'&'%%;$&&&#=.    ",
"  +++$$$$$$$%$&$#&%#$%>&>%&#&#$==#&&$###*=-@@=-+++,''';;%%$$%%$%%%;;>$#&#$&&&===###==#$$$$$%%;&$$&##==#=@~-  +#;{]{'%#$$%%$$==-.    ",
"  ++~>>$$>;;%$$&=#&$$>>$);&&#=-===#&#&&==-@==#- ++))'';$$%$&$$%%$$%;&=#&==@@@----@==#&$%%$$%;&=#######@@@~-  +#;'{)>%$$$$&$#&=-~    ",
"  ++~>>$$%$%;$&$=#$$$%%$>;&&##=&==#&$&===&@==#- ++%%>;&&$%$&&&$$%%&&&#===@@@------@-#@#$$%%&&&##&#&==#=@@~-  +#$;)))%>$$==#===-~    ",
"  ++~%%%;%$%$$&$=&>$$$;$%$$$$#=&*#&&&&&&&&@--=- ++$$&&==&$$&##$$%&&=###=@~-@=----=--@-#$$%&&=##$$&$#@@@@-~-  +#$;'')%#&&##====-~    ",
"  ++~%%%;%$$%&&$&#>%$&$%%&&&#=*=*&##&=##&&@--=- ++=###===#$&=#========---~-@-----=-@=-=================*-~~  +=&;'))%$$&=#=-#*-~    ",
"  ++-%%>>>$>;$$&$$>>$$$$$&&&&&$#=$$$####&&#&=-- ++~~~~~.**@@-~--------.....@~.........--------------~~~~~~+  +=&$>)>%&$&&==#&*-~    ",
"  ++-%%>>>;%%%;$$$;$$&%&$$$$##&**$$$$&&##&#==-- +++                   ++++++++++++++++                       +=$%%>%%$#==#=@=*-~    ",
"  ++=$$%%$$$&%$&$%;&$$&=#&#>**=#-$%$&#&&&&&&-=- +++++-*#&&$$$$$$$$$$$$$$$$$$$$&&###=*~+++                    +=$%&&$%$$==@#=*@-~    ",
"  ++=$$%$$&&$%&&$>$%$&&$#$$#*-*@&$>$&$&$&$$&-=- +++&',,,,,!!!!!!!!!!!!!!,,,,,,))>)>>>;$#-+++++++++++++++++++++=$%&%%&%$#=&==**-~    ",
"  ++=$$%$$#&$&&&%>$$$#&##$&%*~-=$;>>&&$$#&#&#=- ++.)')))'',!,!,,'''')'!')))))))'>))>>;%&~+++~###########&#-+++*$%&%%#$#&#=&=**-~    ",
"  ++=$#>%$%%%$%$&%$&$#==$###*-@#%$%&$;>%&&###=- ++*)')))'!,!,,))'))))%'>$%;;%%;)))))>$$#~  +=%'''''))>$&&&=  +#$%&&%%&&==@=@@--~    ",
"  ++=$$>;$$$$%;;$%$$&&##==*===*&%$%&$)';$*=*@=- ++*'''',!{!{'))')));)$%$%$$$$$$;))>;&#&#~  +#!^,')$;;%$#&#=  +#$%&&#&&#&=@&=@--~    ",
"  ++=$$&#$$$%$%>$&#&&##===#&*==$>$&$$>';$&=*@=- ++*,'',!!!{{',)''')%$%$&&$$$$&$>>>%$&==#~  +#{]!%$$%$;)##=@  +#&&&&&==&#=#=&@-@~    ",
"  ++-&&&&&$&&$$)>$&*#===@#@=**@%>>$$;>>%$##==#- ++*,')',!'''!'')>;>);#;$&#&$&&&$$$#=*#&=~  +#,/'%$$%$)&$&=-  +##;&&&&#&=*##*---~    ",
"  ++-&&#&&$$>%$>>%&$$=#&=#=#@&#;>>$&$;%$###==#- ++*,',,))',>');)!!'>%$#&&&&&&$$##%&####=~  +#>')>;$&$&=$#=-  +=$>&&&#&#&=------~    ",
"  ++~###$$$>)>;$>%$##=#$&#==#=&;&>$$#&$&;=$*@#- ++*,'''',')))>),//,>%$&&$&#&$%$%&&&###*@~  +#;'))$$&&=##==-  +#%)&;&=#&=&&@=---~    ",
"  ++~####$$>''>>%%$$##&####@-*@)>%$$$=$$$=&*@#- ++*,)>)',,',>',)'';%&$$#$$&&$##$$&&###*-~  +=;')>$$&&=##==-  +#>>&;&=&&@=@&----~    ",
"  ++~####$>>))>>>%;$#=#&###=#-#>>;%%$#&$$#-##=- ++*,))>>''>,!'''%$$&$$$&&#&&&#&*$=#&#*@-~  +=%>)%$&&&####*-  +#%%$;#=#-@=#-----~    ",
"  ++~####$%>)>>$>$$&#=&&#**#=@@>$;%&&&>$$#-##=- ++*,'>>));)!'>,';>);$##&&&&##&$=$#=#=@@-~  +=$%>$$$&##=##*-  +=$>$=##&@@=--&*@-~    ",
"  +++##&&$&>%);&%$#=#=#@=**==@@%&%$#=#>%#-@===- ++*,'>;;>')%)!,;$$%$#&$%$&#$%&=###*##@@-~  +=%$%$$$#=&=&*@-  +==&==&=@=-@@-==@-~    ",
"  +++##&&$&%%%&$$;;&###@&**=-*&$$$;;&&$$#=@===- ++*,'>>))%%$;;)>>%$$$&#&&&##&&&##*@*@-~-~  +=%&$%$&&=&=#**-  +*##&#=&=@--==&*@-~    ",
"  + +@@##$>$%$$$$$%%==*==*@=@-=$$$%%$&$#**#==-- ++*,')>;>%$$;;);$$$$&&#######&&==*@=@~--~  +*%$%%$&&#=#&*=-  +@#==&@==@--@-@@--~    ",
"  +  @@###$$#$$%$$;&#&=*@@-@=#&$%$%;&#$#**#=--- ++*,');>>;>>)))$$$&&&#=#&####&&#=**=---~~  +#%$%%$#&&==$*@-  +@#&==@=@------&--.    ",
"  +++--@*#%$##&$%$&&#==@@---@=*&$%$&&#%==#==--. ++*,'))>%%'$'>$&&&&&&&==&#==#&#&=***@--~~  +#%&$%$&##=*#@--  +.*=@@@------@----.    ",
"  ++++-@*##&&#&$%&###=@-@*-=-@-&$%&=#&$=##*---+ ++*,')))))$%;$&##=#$&==#=*@*=#&#=--@@-~-~  +#%&&&&#&&=*#*@-  ++....~...........+    ",
"  ++++.~~@==========@---@--=-=-===========*--.+ ++*,'>>>;;)&%&$%;$=#&===**=*==@@--@---@~~  +#&$%&=&=##@&=-@  +++++++++++++++++++    ",
"  ++++++~-----------~...@~....~------------~++  ++*,'>))>;$%%$%$$&###=&#==*@-@----@-~--~~  +=&&&==$&#=#==-@  ++                     ",
"  ++                +++++++++++                 ++*,')>>>)%$%>);;%&#===##***@-~----~~~~~.  +#;&&=&&#&*@=---  ++                     ",
"  ++             ~~~~~~~~~~~~                   ++*,'))>%%$$;''>;;$&####=***---@@--~~~-~.  +#)&$=#&####@@--  +++++++++++++++++++++  ",
"  ########$$$$$$$$$$$$$$%%%;$&@  + -#&&&&&&&&#=.+ *,'%>>>;&$%>>;;%$##=*=#=@--*@@@@-~~~--~  +#>$$=#&#*#=----  +++~----.++ ~&&&&&&&&  ",
"  $$$$$$$$$%>)))>'{{'';%%$$$$&&. +.>)'!!,);$&&$&@ *,)%$%;;%&%&%;$&&##=~==*@**=#@@=@-@-~-.  +=;$$=#==*==@---  +.*$$&&&=~+~@;;;';;$$  ",
"  >>>%%%%%%>))))>{{'{';%###&&##~ +->)'!!'>$&###=@ *,)%%;%$%&&$%&&&##@*===*@*#@@*==@@*-~-~  +=;$&##@#*=@**@-  +~#)';%$$@ ~&;;'{!'%%  ",
"  %%%%>>)'>>))%%%{{{''$&###&&##~ +->>;%>%%%&&==*- *'));$$%$$$$$&&#=#==#----@-**==#*@@-~-~  +*$&#=#=#@=@@=@-  +~#>);%$#- ~&';'{{!'>  ",
"  )%))),),%>)>%%%''''%;&%&#==@=~ +->>&#%$$$&###=- *>>%$&$$$%$$$&##*@=***-----@*@@@@~--~~~  +@&##===*-@**=@-  +~=%%;;$#- ~%;'{{]{{>  ",
"  ')))),,'>>>%$%%;>';;;;&&#==@=~ +-;));%%$$#=##=@ *$%%&&$&&&&&#&&=**=@@@@@@@--@@@----~~~~  +@####=*@--*#=@-  +~#%>;$$=- =%;,{^^/{>  ",
"  ,'>>>,,>)>>))))&$$$$;&&&#====~ +-;)%%%$;$#==**@ *$%$&&#&&&&#=##=**=@-@*@------*@---~~~.+ +@#===*@@--@=*--  +~#%;%#&@- =%;,{^^^{'  ",
"  )''>%))%)>>>%&$*&%$$$&&&#====~ +-%$$$$;$$*#&=@- *$%$$&&#&&##====*@@@@@@-@@---**----~~~.+ +@&=*=@-@-@-**--  +~=&$&&&@~ #%;'{]]{{'  ",
"  ,>>%%%%)'))>$$%&$);;%;&#*&&==~ +-$&&$>;$#***-@@ +-#$&#&###&##=**@-@@@@@@@*=@=*=-@-@--~.  +-*@@--~@-@-*---  +~@###==-~ #;'',{{{'>  ",
"  ),,>')$%')>%%%%%%$%$;&#==&&=#~ +-$&$;>>&#**@@@@ +.~*#=========@---@-@@@*@***@-@@----~..  ++.~~...-......+  +~=@------ #>);',,'%>  ",
"  ,//'>>%%)))>%%%;)'%&$&#@=@@@#~ +-$%%$$#&=@@--@@ ++.~----------~...~~.....~~~~~~~~~~~.+   +++++++++++++++   ++~-===@~+ #)';'''>%%  ",
"  //,))>%$)>%%%)%%%%$;>&#=#@@@#~ +-$&&$&%&=-@-~-@               ++++++++++                 +++               ++++       #);;;;>';%  ",
"  ,/''%>>))';')'>%;$%;&&#@@==@#~ +-$&&&&@=*---~--                                          +++      @###&&&&&&&&###-++++#>)';;>';%  ",
"  >'')%>$>>$''>%>$$$;&&%*==&=@=~ +-$%&&=#@--**---  +++++++++++++++++++++++++++++++++++++++++++++++++=%%%%;>>>%;;;%$*  ++#>);))''%%  ",
"  ))')>$>))%)%>>%$$;%%)&*@%==-=~ +-$%%&&&*--@--@@  ++++++@$$$$$$$$$$$$$$$$$$$$$$$$$$$$$$$###=@++++++=>)>));%>)'),';*  ++#>)))','))  ",
"  '))>>>%$'>))'%>$$);;##@@@---#~ +-$$$&&***@@-=--  +++.=%)',,,,,,!!!,,,,,')))))))>>>>>>%%%%$$==.++++=>>)>)%>)>',))>*  ++#>);;','>)  ",
"  ,>))%%%$;>)))))%%))%&##=----#~ +-%%%&&%#=-=-~@-  ++.=%;;'',)'>',',,'),)'))>;);;;;;%;;%$%&&&=*@.+++=>)>)))));;>>;$@  ++#%;;'',;''  ",
"  ''))%>%$%))))'%>%)>&##*=-@@-#~ +-$$&#&#@@*-~~@@  ++@&$$;>;>;>;%%;)>)'%$;$;$%$%%;%$$$$$$&#==**--+++=>))>')>,))$%%&@  ++#%))),,,''  ",
"  '%)>%$$&%>)>>>%>%%%&%*#@----=~ +-$$&&#***@--~@-  ++=&$$$>%%$$;&$&%$$;$$;%$&&%####$&&$&&==@--@*@+++=>))>'),!));$$%*  ++#%'))'',>>  ",
"  %%%%%&$$%%%;>>)$$$#&#*@@----#~ +-$$#&&@**@-~---  ++$$$$%$$%$$$##&$&%)$$;%$#&##&=##&&$&#&=@--@*@+++=;))))))');%;$#@  ++#%)')'),>>  ",
"  >$$%))>%%%%%%>%$$$$#@*--@@-~#~ +~#&#*=--@~~~~--  +->;$;>%;$$$&==#&$;>>$)%$&##=@===#&##&#==@*=#@  +=;)))')'));;;%$*  ++#%''');,%%  ",
"  >%>)'',)$$$$$$$$$&%&#*-@--~~#~ ++-*@@----~---@+  +->;$;$%$;$$$=&#%$%%&$>%$&#####=&=&$&#===@*=#@  +=;>')>''));%$;%=  ++#%''!');%%  ",
"  )&>'>')'$&$$##&&$&##&=@=--@@=-+++.--@@*==@-@@.   +-%%%;$%$$$&$=$&>$$;&$%$$$$&#=#*$#&&&&&#&@@-*@  +=;>);>')>>$$$%#*  ++#&'!{{')>>  ",
"  %>%>>'%)$$$#==#&##&&===-@@==#- +++               +-%%%;$$$$&$$&=&>%&$$%$&$&##=**#=##&=##&&@@-*@  +=;>);;>>$;>;%%#*  ++#&'!{{],>>  ",
"  %$)$>%>%$&$$=&=&$&&====&@@==#- +++               +-%;>>>;)$$%&$$$);$&%$$&&&&#&&#&$&$#=&=&&&##@-  +=;>;);$$;''');$@  ++#&''!!''%%  ",
"  %$%$$&>#$&&$=$#&&&&&&#&&@@--=- +++++++++++++++++++=$$%%$$&$$&&$$>$$$&#=#&&%==*#@&$>$&##&&&&&=*@  +=;%%;$$%;;);>$#-  ++#&''>>''%%  ",
"  )$&$&%$&&&$$&=##&==##&&&@@--=- +++ -@@@@@@@@-+  ++=$$$%$&$%$&&$%)$$&&#%&$$&=@-*#$%)$&&$$$&%&=*@  +=;%%$$%)%$$;&#--  ++#&';;))>>>  ",
"  ##&#&$##$&>#$$&$#@&#=&&&&=&=-- ++++;)',')>;;$&* ++=$$$$$&$$&$&%>;$$#&##&$&$#-~@&%>>;&&$$&#&#&=@  +=;>>$>&>&&$&#@--  ++#&''';)>>>  ",
"  %&&&#&=&=%>&$$$$%&&&#&=&=&==-- +++@)'!!!);##&#=+++=$$;$&%$%$%$&%%$$#=##$###=@-@$$%%&$%>;$#&=#=@  +=;)>)%$$&$#==&--  ++#&;''>;;%%  ",
"  &&=&&&&&&$&&$$>$&&=&&&&&&&&-=- +++@)',!,>&&###=+++=$%>%$$%$%;;$$;&$&=&#==*=#@=*$$$>&$)'>>&=*@*@  +=;)>)$$$$&#=-=@-  ++#&;;;>>%%%  ",
"  &&$&$$&$%&&&$%)$&&$&$$&$%&&-=- +++@)>>));%$#=**+++=$$&&$$%%$;>$#&#&###==##&=@=#;$#&$$>));$=*@*@  +=%>)))%$##$$#=--  ++#&;''';>%$  ",
"  &#$$$&#&&&$#%>>>&#$$$&#&&=&#=- +++@);&$$$$&#==*+++-&&&&&&#$&;)>%&#===#@*#@*=-**>>;&$;>>;$$##=#@  +=%'))%&$#==&#*@-  ++#&;;;;';$$  ",
"  ;;&&#&;;&;%&&%%&$$>>%$#&&=##=- +++@);#$%%$&##=*+++-&&&#$$>;$%>>>&&$#=&&=###@=&&>>>&&$;;$&###=#@  +=%''>%%$&###=@@-  ++#&;;';'%&&  ",
"  $&;;$$#$$;>%$$>&$>''%>&@==@@=- +++@>);%%$$#=&#=+++~###&&>)'))>;%$$&#&&##&#*--*=);%$$$#&$$$&#@=@  +=%''%%$$$&#&*@--  ++#&;;;;>%&&  ",
"  =$&;==;=$$>>$#&$$>>'>%$&==@@=- +++@>';);$&#=@@=+++~###&$>)))>>>$>%$=##&####&@-&>>$>%$&&&%$-*#=@  +=%'))%$$&&&&@=@-  ++#&;;;;;%&&  ",
"  ##&&#=##$#'>>%&$%>>>%$$###==#- +++@>>%%%%&#***=+++~###&$>>)>>$;$%&&=&&&#**#*&-=%;$%&&&%%&$-*#=-  +=%);;;$%$&#=@*@-  ++=&%;;%>$&&  ",
"  =#$$$#$=@*>>>>&&$%>%$&####==#- +++@%$$$%&$*#&**++++##&$$>;%)%&%%&##=#=-=**=#-@=$$%&#=#$>$#@*==-  +*$)>;&$%$&#=-@--  ++==;;;>>$$$  ",
"  #$;$#====&%&>%$$#&&$&&>=$&@@#- +++@$$$$;%&*&=-*++++##&$%%$%$$$$%>%&#&@*#**=--=&$$%>%&&$$&=@*==-  +*$);$$$%&#*@----  ++@=$';%%$$$  ",
"  $#=$$$$=&>)>%%$$$#=$$$$=&&@@#- +++@$$$;)%#=*--=++++@*##$$%%$&$$$%;$**#==*@**--#$$$%%$&$&#*##=@-  +*$;%##$&#=**-@=-  ++@=;%&%$$&&  ",
"  $&#&&%$#->>>>$>%$&#&&%$#--##=-  ++@$$;;>&#*@@-=++++@*###%#&$%%$$%%#&==@@@-@==#&%$$%%&=&&=@##@--  +=%;$&$##$#*@*#$-  ++~=$$$$$$&&  ",
"  &&&>$&$#->>$>$%&&&&>$&$#--##=-  ++@$%%$$&=*---*+++++-@=##$##&$%&&=#=*~-**-*--@@$%&&=#&$#=#*---+  +=%%;%$$&#=*&@*#-  ++~=$&&&#&&&  ",
"  =##>>&#-@>$&%%&#=##>>&#-@@===- .++@$&$$$#*-@@~=+++++~~-*===========--~-@--*-@*@===========*--~+  +=;);$%$&###=*@@-  ++~=$&&&##&&  ",
"  &#$$$&==@&$$$%>;&#$$$&==@@===-  ++@$&$$$&*---~=++++++.-------------...~-~.....~-------------++   +=>);>)%$&==*@@*-  ++~=&$$#$#&&  ",
"  ;#$$##@@#$&$$$%%;#$$##@@##==--  ++@$&&&=#*---~@+++++++             ++++++++++++                  +=>>$%%$$####@@=-  ++~#$$$####&  ",
"  &=#$#=@@#$%%$$%;&=#$#=@@##=---  ++@$&##=*-@@-~@+++++++                                           +=>;$$$&&###=@@--  +++=%%$%;&#$  ",
"  &##%===#=#$$%%&&&##%===#===--.  ++@&%$&#@--#--@+++++++++++++++++++++++++++++++++++++++++++++++++++=>>%$$$&#&##@---  +++@$$%&&&#%  ",
"  ##$$==##=#$$%&&=##$$==##=----+  ++@&%$&&*--@--=+++++++@=$$$$$$$$$$$$$$$$$$$$$$$$$$$$$$$##==@++++++=>>>$$&$=###=---  +++~$$%&=#$$  ",
"  =========================---.+  ++-%$$$==@=@***++++.$%)'',,,,,!!!,,,,,,')))))))>>>>>>%%%$$$==.++++=>>;%#&###&#=-#-  +++~========  ",
"  ~~~~~~~~~~~~~~~~~~~~~~~~~~.++   ++-&%$###*@-@-@+++.$),!,/!,!!!!!!!,!'!!,),'));>>>>>>>%%&$&&#=@.+++=>>%$&$&#=&##*--  ++++~~~~~~~~  ",
"                                  ++@%%$#$#=@@-@*+++.%,!///{!!/'')'''>)));)>)))>%%;>>>>;%$&#*=*.. ++=>%%&&&&###&*@--  ++++          ",
"  ++++++++++++++++++++++++++++++++++-$$&##@@#-~-=+++.%,////^!!!,)))')>));;;;>>)%%%;;>>>%$$&&=**.. ++=>%%$&##&=##*---  +++->>>&-+    ",
"  +++++@$$$$$$$$$$$$$$$$$$#=@+++++++@&%$#=@**~~-@+++.%,,//^!,',))>')>>);%;;>>>>%%;;;>;;$&$$&=*-.. ++=>$$##=&&=#====-  ++-;{{'>#-    ",
"  ++.$%)',,,!,,,,))))>>>>%%$==.+++++@$&&#=**-~-@@+++.%,^//^!,,)))>>)));;);))>>>%>>>;%$&$$$$&#**.. ++=>$$#&#*===#*@@-  ++%{'';>&@    ",
"  +.$),!!!!!!!!!!,,))>>>>%%$==@.++++@$&&&***@-~-@+++.>,{///!!''))>>));;;;>))>>>;$%;$$$&$$$&#===.. ++=>$$$&=-#@=@@@@-  ++%{{;;&&@    ",
"  +.%,!/^,!,)'))>>>)%%%>>%&#@@.. +++-&###*-#--~--+++.),!//!,,!)>>;;)>%%%)''')>>$$$$$$$&&&&##===.. ++=>&$&###==-*@=@-  ++${'>&&@@    ",
"  +.%,//^!,')'>>>%%)%%%>>&&$=@.. +++~##**@--~~~-- ++.),!/{,,,,,)>%;>>%%;)',)));;%%%$$$$$#===**~.. ++=>$&#=&&*-@*#==-  ++${'>&&@@    ",
"  +.%,///,')>>>>$>>>$%>%;&$&@@.. ++++@@@----~--@. ++.),!!!!!,')>>>>>>;%%>,'')>>%$;%$$$$$$===***.. ++=;%&#*=---@&&#*-  ++${%>&=-@    ",
"  +.%,^/^,''>))>>))>))>%$>%&=@.. ++++-@---**@-*@+ ++.),!,!,,!'))>;>>>>%%>))))>>;%>&&%&&%&#==@*-.. ++=;##=-@-~@-*#*--  ++${%$$=-@    ",
"  +.),//!,'>))>%)')>%$%$&%&##@.. ++++++..~~~...+  ++.),!,,,''')>>;;%>>%%%>))>;;;)%$$$$&$&##***-.. ++=;=*~......-=@--  ++&'&#&@=@    ",
"  +.),/^,,/>%>)%),')$%%$$#&===.. +++++            ++.),,,',,'')))>%%;>;>%;>))>;;)>;$$$$$&##**=@.. ++@&=-~~.....~..--  ++&;&&&@=@    ",
"  +.),!/!''>%>>%),'>%%&&$&#==-.. +++++            ++.),!)',')))>;)%%;>;>;>>>%>))>>;%$$$$&&&===-.. +++@##=@********-+  ++~#$))#-~    ",
"  +.),!,,''>>>)%>'))%;&%&&#==-.. +++++++++++++++++++.),,)',')'>>>>;;;;;;;;>;%))>>;;$$$&&&$=*=#-.. +++ +++++++++++++   +++~=@@-~+    ",
"  +.),!!,)'>>%>%%))%%%%$&$#@#-.. ++++-@@@@@@@@-+++++.),')))))))))>>;%%$$%;;);)>>>;;$$$&&$#==@*~.. ++++                ++            ",
"  +.),!'!,)>)%>%%));)>%&&##=#-.. ++++;)',')>;;$&*+++.),)')')))))))>;$%$&&%%>>))';>%$&$&&&&=***-.. +++++------------------------+++  ",
"  +.),!)'))>)%%>;>>'>>;$%&&=$-.. +++@)'!!!);##&#=+++.),'))'')))))>;%$$$&&$%;)))))>%$$$&#&&#=#=-.. ++++-@##$$#$$$$%%%&###----~~~-++  ",
"  +.),'>,''>>%%%>>))>%%$&$$@#-.. +++@)',!,>&&###=+++.),'%))')'')))>$$$&&$$%;>)))))$$&&####==##-.. +++@@#$$$$$$$$%%&&&&%#@@====@--+  ",
"  +.),))),'))%%$$%')'>%&#&&@@-.. +++@)>>));%$#=**+++.),)))),'!,!!')%%&&&&$$$>)>>)%$$&&&###=**=*.. +++@@#$$%%%$$%%$&&&&&#@@=---@--+  ",
"  +.),),,))))%$$&%;)))%$&&&==-.. +++@);&$$$$&#==*+++.),>>)))'//^,')%$&$&&&&%;;;>>;;&&&&##==*=@~.. +++#$$$$>>%%$$>#$&&$&#==@---@=-+  ",
"  +.),%%))'))%$&&%%))%%$##=##~.. +++@);#$%%$&##=*+++.),))))''!^/{')%$$&$&&$$%%;;;;$&&&&#*#@**-~.. +++#$$$%$$$%$$$##&&$&##=@---@=-+  ",
"  +.),)%)'!!,;$&&$%)>%%&&##==~.. +++@>);%%$$#=&#=+++.),,>>,',!,!!',)$$$$$#$$$%%$;$$&&#==**-@@@~.. ++~#>$>>%%>$$$#==#&##&#==---=#-   ",
"  +.),)>)'/^';%%&$;%>)%&&==@-~.. +++@>';);$&#=@@=+++.),,;>,',,,!!,,)%$$$$$&#$$$$$$&###=@-@-@@@~.. ++~#>$>$$%$>$$$=&=&$&#===@@@=#-   ",
"  +.),)>''!!')))>$;%%%$##==@-~.. +++@>>%%%%&#***=+++.),)>''',,,!!!')>%$$$$&##&##&#==*=*-----@-~.. ++~#%%>$$%$$$&$=$#&&&&&##&@-@=-   ",
"  +.),)%,'!!,,(((;$$$$&&=@-@-~.. +++@%$$$%&$*#&**+++.),>>>',,,,,!,'>>;%$$$##=***==*@@@-----~-~~.. ++~#%%>$$$$%&$$&=##&=##&&$#@-@-   ",
"  +.),)%'',!,,(('$&$&&#==--@-~.. +++@$$$$;%&*&=-*+++.),>))'',',,,')>;;$$$$#**@*=@@@@@@@---~--~-.. ++-#%>>>$%'$$>#$$&$#@#=&$;$=---   ",
"  +.),>>'',,,)''%$#====@-----~.. +++@$$$;)%#=*--=+++.),;;),'''''>;>>%;$%$&===@@@@@--@@@@@***--~.. ++-#%>>>%%$%%>&$$$$%&&#$;);$---   ",
"  +.),)>)''!'))%$&=@#@@@@--~-~.. +++@$$;;>&#*@@-=+++.',;;))'))'');%;>;$$$$&#=@@-*@@*-@-@-*@@--~.. ++=#%%%$$$&&%&&$$>$&&&&&$;$&@=-   ",
"  +.),)%,)'');>;&=@@@@-@@-@=-~.. +++@$%%$$&=*---*+++.',>)>>>))))$$%;;;%$&$&=#=**@--*@@---@-@@-~.. ++=#%%%$&&&%%&&$%)$&&&$$&$%&@=-   ",
"  +.',%%))'>%%>%&&=@-@@-@@@@~~.. +++@$&$$$#*-@@~=+++.',)))>>>>>%%%$$;;%$$$$#=@*=---*==@---@@--~.. ++=#>%$$#&&%&$#%>>>&#$$&#&&##=-   ",
"  +.',))>))%$%>$&$#==--=-----~.. +++@$&$$$&*---~=+++.',))))>;>;%$>;$%;%$$$$&*=*=@-*#=*--@-----... ++=#>>$&%%$%$%&&%%&$%>%$#&###=-   ",
"  +.',))>>%%>$%%&&&@=--#--@--~.. +++@$&&&=#*---~@+++.''))))>>;%$;%$$$$%%$$&&=@@@=#=#=*@@@-@---~.. ++=#$>$$$$%&%>%$$>&$>'%%&#==@=-   ",
"  +.',)')>)$)$$%%&$-=-@=@@=--~.. +++@$&##=*-@@-~@+++.')))))>>$$$$$$$$$%%$$#==-@*##&#*****-@@--... ++=#$&$$$$%%$>>$#&$%>'>%$&==@=-   ",
"  +.'))%)>%&$$$%$&=-=##@@@~@-~.. +++@&%$&#@--#--@+++.')))>>;%$&$&&$&&$$$%$&&#@@@=#&#******-@@-... ++-#&&&&$&#$$'>>%&$%>>%$$###=#-   ",
"  +.'))'>%&$&&$%$&=@-#&@@@@@-... +++@&%$&&*--@--=+++.'));%%$$$&&&&&#&&&$$&&#==*@*##&=*=@@@**-~... ++-#&##$$$>>%>>>>&&$%%$&####=#-   ",
"  +.'))>%$$#&#&$$&&@-#&=#@@-.~.. +++-%$$$==@=@***+++.'>>$$%$&&&$&####&&&$&&==*=@=###*==**@@=@~... ++~###>&$>>'>%&>%$$#&$&&>=$&@#-   ",
"  +.'>%%%$&%####$$==@##==-@=~... +++-&%$###*@-@-@+++.'>;$$$$&&&&##@@==&&&&&******=##*=#*@*=*=-... ++~###$&$>)'')>%%$$$#$$$$=@#@#-   ",
"  +.'>%%$$&&=@=&$&==@=#@=-@=-... +++@%%$#$#=@@-@*+++.)>%%$$$&&&&#@-@@=#$=##@-@*@*=*=#=**@@**-~... ++~###&$>>)))>>>$>%$&&&%$#--#=-   ",
"  +.>>%%$$&&=-@==#--@==#=@@@~... +++-$$&##@@#-~-=+++.>>$$$$$&&&&#--~**=#====---@*=*===*-@@@--~... ++~###&$%>>)>>$>$%&&&>$&$@--#=-   ",
"  +.>>%$$$&#-~-===--@=-=@@@-~... +++@&%$#=@**~~-@+++.;;%$$&&#&&=@--~~*=#==*@@@***@*==**@@@---~... +++##&%$&>>$)$&%%&#=#>>&#@@@=@-   ",
"  +.%%%$&&&#~~~@=@=@==@@=@@-.... +++@$&&#=**-~-@@+++.%%%$&&&#&##*-~~~@*======@*=**@*@@*@@---~.... +++##&$%&%$%%$$$%>;&#$$&=@@@=@-   ",
"  +.%%%$&&#&-~-==@=@=--@@--~.... +++@$&&&***@-~-@+++.%%%&$&$&&###@---*=#==***@@*=-@@@@@@----~~... +++@@##%>$%%$&$$$%%;#$##@@##=--   ",
"  +.%%$##&$=@@===@@@@@@@@--~.... +++-&###*-#--~--+++.%%$&$&&$###=**@======@@@@@@@@-@@@@@---~~.... ++ @@###$%##$%%$$%;&=$#=@@##@--   ",
"  +.%%$$$&$======@@@@@@@@--..... +++~##**@--~~~-- ++.%%#&$$&$$============*@=**@@@*@@@@@*----.*.. +++--@##%%###$$%%&&&#%#==#==--.   ",
"  ..============================....@==========@@....============================================....=======================@@@@-.  ",
"  ..###########################=....@###########@....###########################################=....=#########################*-.  ",
"  @@@@@@@@@@@@@@@@@@@@@@@@@@@@@@----@@@@@@@@@@@@@---@@@@@@@@@@@@@@@@@@@@@@@@@@@@@@@@@@@@@@@@@@@@@----@@@@@@@@@@@@@@@@@@@@@@@@@@@@-  ",
"  ----------------------------------@@@@@@@@@@@@@-----------------------------------------------------@@@@@@@@@@@@@@@@@@@@@@@@@@@-  ",
"                                                                                                                                    ",
"                                                                                                                                    "};
