/* XPM */
static char * gun3_xpm[] = {
"52 52 12 1",
" 	c #A349A4",
".	c #383838",
"+	c #787878",
"@	c #585858",
"#	c #F8F8F8",
"$	c #181818",
"%	c #E8D8C8",
"&	c #B8B8B8",
"*	c #805030",
"=	c #C07048",
"-	c #E8A070",
";	c #E8B898",
"                                                    ",
"                                                    ",
"                                                    ",
"                                                    ",
"                        .++.                        ",
"                       @+#+@.                       ",
"                      $@+#+@.$                      ",
"                      $@+%+@.$                      ",
"                      $@+&+@.$                      ",
"                      $@+&+@.$                      ",
"                      $@+&+@.$                      ",
"                      $@+&+@.$                      ",
"                    @&$+&&&&+$&@                    ",
"                   @@+$+#++#+$+@@                   ",
"                  ..@+$&%++%+$+@@.                  ",
"                  ..@+$&+@@++$+@@.                  ",
"                  ..@+$&@..@+$+@..                  ",
"                  ..@+.+&&&&+.+@..                  ",
"                  ..@+.@++++@.+@..                  ",
"                  ..@+.@@@@@@.+@..                  ",
"                  ...@.$$$$$$.@.$$                  ",
"                  .$$@.........$$$*==               ",
"                  .$$..+@@+&+..$$$*=-;              ",
"                  .$$$.@@+&&+.$$$$*==;              ",
"                **.$$$.$$$$$$.$$$$**=-;             ",
"               ***..$$.$$..$$.$$.$**=-;             ",
"               ***.@.$.$$$$$$.$.@$**=-;             ",
"              *****+@$..$$$$..$@$****=;;            ",
"              ******+$.........$*****=-%            ",
"             ****==**$@@++++@@.*==***=-%%           ",
"             ***=--=*$$$$$$$$$$==-***=-%%           ",
"             ***=-;;;***=--=**=;;**==--%;           ",
"            *=-**=----***=;;===-**===-;%-           ",
"            *=-=**=---;;;***-==**=*==;%%            ",
"            *=;-=**=-;%;;-==***==**=-;%%            ",
"            *=;--=**=;--==**===****=-;%;            ",
"           *=-;--==**--==*********=--;%-            ",
"           *=----===*=-=**********=--;%*            ",
"           *=---===***--=*********=--;%*            ",
"           *======***.*--=********=--;%*            ",
"           *=====***...*===******+++++++@           ",
"          @+&&&++***$$$$.*==**@+&&&&&&&%#+          ",
"         @&%%%%%%%&+@.$.@ **@+&&&&&++&&&##+         ",
"         &%##%%%&&++@@@@  *@+&&&@.$.+++&&#%         ",
"        &%####%&+++@..$$.  ++%&+.$@@@&&&&#%+        ",
"       &&&&%###%&&@$$$$$@  +#%@.$$$@@++&&%#%+       ",
"       &%########%&+.$$$@  +#@.$$@+++++@@+&#&       ",
"      &###%&&&&&%%&+@.$.@  ++.$@++@@@+&&+@@&%+      ",
"      &##%&&++++@@@@.$$@   +@$@+@@.$$.@+&&+@&%      ",
"     &#%&&++&#+@....$$.@   +.@+@@@+@.$$.@+&&+%&     ",
"     ##%&+@@+&&+@@.$$$@    +.+++&&++@@.$$.+&##&+    ",
"    &##%&+@@@++&+..$$.@    +++&%%%&+++@.$$.+&##&    "};
