/* XPM */
static char * gun4_xpm[] = {
"65 65 12 1",
" 	c #A349A4",
".	c #383838",
"+	c #181818",
"@	c #585858",
"#	c #F8F8F8",
"$	c #787878",
"%	c #E8D8C8",
"&	c #B8B8B8",
"*	c #E8B898",
"=	c #C07048",
"-	c #E8A070",
";	c #805030",
"                                                                 ",
"                              ....                               ",
"                            +.@#$@.+                             ",
"                           ++@$#$@.++                            ",
"                           ++@$%$@.++                            ",
"                           ++@$&$@.++                            ",
"                           ++@$&$@.++                            ",
"                           ++@$&$@.++                            ",
"                           ++@$&$@.++                            ",
"                           ++@$&$@.++                            ",
"                           ++@$&$@.++                            ",
"                           ++@$&$@.++                            ",
"                           ++&####$++                            ",
"                         .$$+&#&&#$+$$.                          ",
"                        .$&@+&#&&#$+@&$.                         ",
"                       .@$&@+&#$$#$+@&$.+                        ",
"                       .@$&@+&#&&#$+@&$.+                        ",
"                       .@$&@+&#$$#$+@&$.+                        ",
"                       .@$&@+&%$$%$+@&$.+                        ",
"                       .@$&@+&$@@$$+@&$.+                        ",
"                       .@$&@+&@..@$+@&$.+*                       ",
"                       .@$&@.$&&&&$.@&$.+=-*                     ",
"                       .@$&@.@$$$$@.@$@.+==-                     ",
"                       ..@$@.@@@@@@.@@..+;=-*                    ",
"                       ...@@.++++++.@..++;=-*                    ",
"                       .+..@..........+++;==*                    ",
"                     ;;.++...$@@$&$..++++;;=-*                   ",
"                    ;;;.++...@@$&&$.+.+++;;=-*                   ",
"                   ;;;;.@.++.++++++.++.@+;==-*                   ",
"                   ;;;=;$@.+..++++..+.@+;;;;=**                  ",
"                   ;;===;$@+.........@+;;;;;=-%                  ",
"                   ;;=-#=;$+@@$$$$@@.+;==;;;=-%%                 ",
"                  ;;;-*%*=;++++++++++;==-;;==-%%                 ",
"                  ;;;;-***=;;;=--=;;=-**;;===-%*                 ",
"                  ;=;;=---*-=;;=**===*-;;=-==-%-                 ",
"                 ;=-=;;=---%***=;;-===;;*-===-%                  ",
"                 ;=*-=;;=--%%%*-*=;;;;**-==;=*%                  ",
"                 ;=*--=;;=-%--===-****-==;;;=%*                  ",
"                 ==*--==;;=--=;;;==--==;;;;=-%-                  ",
"                 =----===;;=-=;;;;;==;;;;;;=*%                   ",
"                ;=---===;;;=--=;;;;;;;;;;;=-*%                   ",
"                ;======;;;;;=--=;;;;;;;;;;=-*%                   ",
"                ;;====;;;;==;==-=;;;;;;;;==-*%                   ",
"                ;;;;;;;;;=;..++=-=;;;;;;;==-*%                   ",
"                ;;;;;;;;=;..+++.;-=;;;;$$$$$$$$                  ",
"                #######&&;.++++.@==;@$$&&&%#%&$                  ",
"               ##&&&&&&&&$$@++.@ ;@$$&&$$$$%##&@                 ",
"               ###%&&&&&&$@...@  @$&&$$@@@@$$$&$                 ",
"               ######&&&$$@@++@  $$&%$$$&&&&$$$&@                ",
"              ####&&&&$$@@@@++@  $&%%&&&$@$$&##&$                ",
"              ###&&&$$@@@@@+++@  $&%&$@..@@@$$&&$@               ",
"              ####&$$@.....++.@  $&$@..@@$$&&&@@$$               ",
"             ######&&$$$.++++..  $$@.@@$$@@@$&&$@@               ",
"             ##%%%%###&&$.+++@   $@..@$@@@@@@@$&&$@              ",
"             %%&&&&&&%##&$.++@   $..@$@@@....@@$&&$              ",
"             &&@$$$$&&&%#&@++@   $.@&$@..@$$$$@@$&$              ",
"            %&@@@@@@@$&&&&@+..   $$&&@.@@$&&&&$$@@$@             ",
"            &##%$@.+..@$$$.+@    $#@@.@$$&&###&&%&$$             ",
"            &#%&#&$.++..@.++@    $@.+.@$&$$$&&@@$&&$             ",
"            ####&#&$$.++++++@    $.+.@$$$@@@$&&$$$&&$            ",
"           &###&&&##&&$.++++.    $+.@$$@..++@@$&&$$&$            ",
"           #%&&$&&&##&$@.+++.    $+.$$@.@$@.+.@@$&&$%@           ",
"           #%&$+@&&&&$$@.+++.    $+.@$$$&&$@@.+.@$&##$           ",
"           #%&$@+@$$$$@.++++.    $++.@$&&&&$$@.++@$&#&           ",
"          %##%&$@+++...+++++.    @+++.@$%%&&&$$@.+@$&#           "};
