/* XPM */
static char * S_wall2_xpm[] = {
"132 132 24 1",
" 	c #000000",
".	c #370000",
"+	c #210000",
"@	c #4B0000",
"#	c #5D0000",
"$	c #700000",
"%	c #7D0000",
"&	c #660000",
"*	c #4E0000",
"=	c #540000",
"-	c #420000",
";	c #800000",
">	c #860000",
",	c #A30000",
"'	c #990000",
")	c #900000",
"!	c #AD0000",
"~	c #3A0000",
"{	c #010000",
"]	c #B30000",
"^	c #CD0000",
"/	c #C00000",
"(	c #B60000",
"_	c #D30000",
"                                                                                                                                    ",
"                                                                                                                                    ",
"  .++@@##$$$$$$%%&%%%%%%%%$$$%$&&%&&$$&@*==*@--+...$$$$$$$$$$$$$$$$$$$$$$$$$$$$$$$$$$$$$$$$$$$$$$&&&&##---.....**#############....  ",
"  .++@@##$%%$$$%$&;>;%%$&&&&&$%#=$&&&&#@*==*@--+..$$;;%%%%%%;;;;>>>>>>;;;;;;;;%%%%%%%%%%%%%%%%$$$$&&&&##---...**;;>>%%%%$$&&##=...  ",
"  +++$$$$$>;%$$;#$%%$$;&>%&&$&##=#$&$&#=*@-@@=-+++,'>>>>%;%;;)'>))!))'$'%%>';>;;%%;$$)%%>;;>;;$$$##$#==#@~-{{+=;]^]'&'%%;$&&&#=.{{  ",
"  +++$$$$$$$%$&$#&%#$%>&>%&#&#$==#&&$###*=-@@=-+++,''';;%%$$%%$%%%;;>$#&#$&&&===###==#$$$$$%%;&$$&##==#=@~-{{+#;]^]'%#$$%%$$==-.{{  ",
"  ++~>>$$>;;%$$&=#&$$>>$);&&#=-===#&#&&==-@==#-{++))'';$$%$&$$%%$$%;&=#&==@@@----@==#&$%%$$%;&=#######@@@~-{{+#;'])>%$$$$&$#&=-~{{  ",
"  ++~>>$$%$%;$&$=#$$$%%$>;&&##=&==#&$&===&@==#-{++%%>;&&$%$&&&$$%%&&&#===@@@------@-#@#$$%%&&&##&#&==#=@@~-{{+#$;)))%>$$==#===-~{{  ",
"  ++~%%%;%$%$$&$=&>$$$;$%$$$$#=&*#&&&&&&&&@--=-{++$$&&==&$$&##$$%&&=###=@~-@=----=--@-#$$%&&=##$$&$#@@@@-~-{{+#$;'')%#&&##====-~{{  ",
"  ++~%%%;%$$%&&$&#>%$&$%%&&&#=*=*&##&=##&&@--=-{++=###===#$&=#========---~-@-----=-@=-=================*-~~{{+=&;'))%$$&=#=-#*-~{{  ",
"  ++-%%>>>$>;$$&$$>>$$$$$&&&&&$#=$$$####&&#&=--{++~~~~~.**@@-~--------.....@~.........--------------~~~~~~+{{+=&$>)>%&$&&==#&*-~{{  ",
"  ++-%%>>>;%%%;$$$;$$&%&$$$$##&**$$$$&&##&#==--{+++{{{{{{{{{{{{{{{{{{{++++++++++++++++{{{{{{{{{{{{{{{{{{{{{{{+=$%%>%%$#==#=@=*-~{{  ",
"  ++=$$%%$$$&%$&$%;&$$&=#&#>**=#-$%$&#&&&&&&-=-{+++++-*#&&$$$$$$$$$$$$$$$$$$$$&&###=*~+++{{{{{{{{{{{{{{{{{{{{+=$%&&$%$$==@#=*@-~{{  ",
"  ++=$$%$$&&$%&&$>$%$&&$#$$#*-*@&$>$&$&$&$$&-=-{+++&',,,,,!!!!!!!!!!!!!!,,,,,,))>)>>>;$#-+++++++++++++++++++++=$%&%%&%$#=&==**-~{{  ",
"  ++=$$%$$#&$&&&%>$$$#&##$&%*~-=$;>>&&$$#&#&#=-{++.)')))'',!,!,,'''')'!')))))))'>))>>;%&~+++~###########&#-+++*$%&%%#$#&#=&=**-~{{  ",
"  ++=$#>%$%%%$%$&%$&$#==$###*-@#%$%&$;>%&&###=-{++*)')))'!,!,,))'))))%'>$%;;%%;)))))>$$#~{{+=%'''''))>$&&&={{+#$%&&%%&&==@=@@--~{{  ",
"  ++=$$>;$$$$%;;$%$$&&##==*===*&%$%&$)';$*=*@=-{++*'''',!]!]'))')));)$%$%$$$$$$;))>;&#&#~{{+#!/,')$;;%$#&#={{+#$%&&#&&#&=@&=@--~{{  ",
"  ++=$$&#$$$%$%>$&#&&##===#&*==$>$&$$>';$&=*@=-{++*,'',!!!]]',)''')%$%$&&$$$$&$>>>%$&==#~{{+#]^!%$$%$;)##=@{{+#&&&&&==&#=#=&@-@~{{  ",
"  ++-&&&&&$&&$$)>$&*#===@#@=**@%>>$$;>>%$##==#-{++*,')',!'''!'')>;>);#;$&#&$&&&$$$#=*#&=~{{+#,('%$$%$)&$&=-{{+##;&&&&#&=*##*---~{{  ",
"  ++-&&#&&$$>%$>>%&$$=#&=#=#@&#;>>$&$;%$###==#-{++*,',,))',>');)!!'>%$#&&&&&&$$##%&####=~{{+#>')>;$&$&=$#=-{{+=$>&&&#&#&=------~{{  ",
"  ++~###$$$>)>;$>%$##=#$&#==#=&;&>$$#&$&;=$*@#-{++*,'''',')))>),((,>%$&&$&#&$%$%&&&###*@~{{+#;'))$$&&=##==-{{+#%)&;&=#&=&&@=---~{{  ",
"  ++~####$$>''>>%%$$##&####@-*@)>%$$$=$$$=&*@#-{++*,)>)',,',>',)'';%&$$#$$&&$##$$&&###*-~{{+=;')>$$&&=##==-{{+#>>&;&=&&@=@&----~{{  ",
"  ++~####$>>))>>>%;$#=#&###=#-#>>;%%$#&$$#-##=-{++*,))>>''>,!'''%$$&$$$&&#&&&#&*$=#&#*@-~{{+=%>)%$&&&####*-{{+#%%$;#=#-@=#-----~{{  ",
"  ++~####$%>)>>$>$$&#=&&#**#=@@>$;%&&&>$$#-##=-{++*,'>>));)!'>,';>);$##&&&&##&$=$#=#=@@-~{{+=$%>$$$&##=##*-{{+=$>$=##&@@=--&*@-~{{  ",
"  +++##&&$&>%);&%$#=#=#@=**==@@%&%$#=#>%#-@===-{++*,'>;;>')%)!,;$$%$#&$%$&#$%&=###*##@@-~{{+=%$%$$$#=&=&*@-{{+==&==&=@=-@@-==@-~{{  ",
"  +++##&&$&%%%&$$;;&###@&**=-*&$$$;;&&$$#=@===-{++*,'>>))%%$;;)>>%$$$&#&&&##&&&##*@*@-~-~{{+=%&$%$&&=&=#**-{{+*##&#=&=@--==&*@-~{{  ",
"  +{+@@##$>$%$$$$$%%==*==*@=@-=$$$%%$&$#**#==--{++*,')>;>%$$;;);$$$$&&#######&&==*@=@~--~{{+*%$%%$&&#=#&*=-{{+@#==&@==@--@-@@--~{{  ",
"  +{{@@###$$#$$%$$;&#&=*@@-@=#&$%$%;&#$#**#=---{++*,');>>;>>)))$$$&&&#=#&####&&#=**=---~~{{+#%$%%$#&&==$*@-{{+@#&==@=@------&--.{{  ",
"  +++--@*#%$##&$%$&&#==@@---@=*&$%$&&#%==#==--.{++*,'))>%%'$'>$&&&&&&&==&#==#&#&=***@--~~{{+#%&$%$&##=*#@--{{+.*=@@@------@----.{{  ",
"  ++++-@*##&&#&$%&###=@-@*-=-@-&$%&=#&$=##*---+{++*,')))))$%;$&##=#$&==#=*@*=#&#=--@@-~-~{{+#%&&&&#&&=*#*@-{{++....~...........+{{  ",
"  ++++.~~@==========@---@--=-=-===========*--.+{++*,'>>>;;)&%&$%;$=#&===**=*==@@--@---@~~{{+#&$%&=&=##@&=-@{{+++++++++++++++++++{{  ",
"  ++++++~-----------~...@~....~------------~++{{++*,'>))>;$%%$%$$&###=&#==*@-@----@-~--~~{{+=&&&==$&#=#==-@{{++{{{{{{{{{{{{{{{{{{{  ",
"  ++{{{{{{{{{{{{{{{{+++++++++++{{{{{{{{{{{{{{{{{++*,')>>>)%$%>);;%&#===##***@-~----~~~~~.{{+#;&&=&&#&*@=---{{++{{{{{{{{{{{{{{{{{{{  ",
"  ++{{{{{{{{{{{{{~~~~~~~~~~~~{{{{{{{{{{{{{{{{{{{++*,'))>%%$$;''>;;$&####=***---@@--~~~-~.{{+#)&$=#&####@@--{{+++++++++++++++++++++  ",
"  ########$$$$$$$$$$$$$$%%%;$&@{{+{-#&&&&&&&&#=.+{*,'%>>>;&$%>>;;%$##=*=#=@--*@@@@-~~~--~{{+#>$$=#&#*#=----{{+++~----.++{~&&&&&&&&  ",
"  $$$$$$$$$%>)))>']]'';%%$$$$&&.{+.>)'!!,);$&&$&@{*,)%$%;;%&%&%;$&&##=~==*@**=#@@=@-@-~-.{{+=;$$=#==*==@---{{+.*$$&&&=~+~@;;;';;$$  ",
"  >>>%%%%%%>))))>]]']';%###&&##~{+->)'!!'>$&###=@{*,)%%;%$%&&$%&&&##@*===*@*#@@*==@@*-~-~{{+=;$&##@#*=@**@-{{+~#)';%$$@{~&;;']!'%%  ",
"  %%%%>>)'>>))%%%]]]''$&###&&##~{+->>;%>%%%&&==*-{*'));$$%$$$$$&&#=#==#----@-**==#*@@-~-~{{+*$&#=#=#@=@@=@-{{+~#>);%$#-{~&';']]!'>  ",
"  )%))),),%>)>%%%''''%;&%&#==@=~{+->>&#%$$$&###=-{*>>%$&$$$%$$$&##*@=***-----@*@@@@~--~~~{{+@&##===*-@**=@-{{+~=%%;;$#-{~%;']]^]]>  ",
"  ')))),,'>>>%$%%;>';;;;&&#==@=~{+-;));%%$$#=##=@{*$%%&&$&&&&&#&&=**=@@@@@@@--@@@----~~~~{{+@####=*@--*#=@-{{+~#%>;$$=-{=%;,]//(]>  ",
"  ,'>>>,,>)>>))))&$$$$;&&&#====~{+-;)%%%$;$#==**@{*$%$&&#&&&&#=##=**=@-@*@------*@---~~~.+{+@#===*@@--@=*--{{+~#%;%#&@-{=%;,]///]'  ",
"  )''>%))%)>>>%&$*&%$$$&&&#====~{+-%$$$$;$$*#&=@-{*$%$$&&#&&##====*@@@@@@-@@---**----~~~.+{+@&=*=@-@-@-**--{{+~=&$&&&@~{#%;']^^]]'  ",
"  ,>>%%%%)'))>$$%&$);;%;&#*&&==~{+-$&&$>;$#***-@@{+-#$&#&###&##=**@-@@@@@@@*=@=*=-@-@--~.{{+-*@@--~@-@-*---{{+~@###==-~{#;'',]]]'>  ",
"  ),,>')$%')>%%%%%%$%$;&#==&&=#~{+-$&$;>>&#**@@@@{+.~*#=========@---@-@@@*@***@-@@----~..{{++.~~...-......+{{+~=@------{#>);',,'%>  ",
"  ,(('>>%%)))>%%%;)'%&$&#@=@@@#~{+-$%%$$#&=@@--@@{++.~----------~...~~.....~~~~~~~~~~~.+{{{+++++++++++++++{{{++~-===@~+{#)';'''>%%  ",
"  ((,))>%$)>%%%)%%%%$;>&#=#@@@#~{+-$&&$&%&=-@-~-@{{{{{{{{{{{{{{{++++++++++{{{{{{{{{{{{{{{{{+++{{{{{{{{{{{{{{{++++{{{{{{{#);;;;>';%  ",
"  ,(''%>>))';')'>%;$%;&&#@@==@#~{+-$&&&&@=*---~--{{{{{{{{{{{{{{{{{{{{{{{{{{{{{{{{{{{{{{{{{{+++{{{{{{@###&&&&&&&&###-++++#>)';;>';%  ",
"  >'')%>$>>$''>%>$$$;&&%*==&=@=~{+-$%&&=#@--**---{{+++++++++++++++++++++++++++++++++++++++++++++++++=%%%%;>>>%;;;%$*{{++#>);))''%%  ",
"  ))')>$>))%)%>>%$$;%%)&*@%==-=~{+-$%%&&&*--@--@@{{++++++@$$$$$$$$$$$$$$$$$$$$$$$$$$$$$$$###=@++++++=>)>));%>)'),';*{{++#>)))','))  ",
"  '))>>>%$'>))'%>$$);;##@@@---#~{+-$$$&&***@@-=--{{+++.=%)',,,,,,!!!,,,,,')))))))>>>>>>%%%%$$==.++++=>>)>)%>)>',))>*{{++#>);;','>)  ",
"  ,>))%%%$;>)))))%%))%&##=----#~{+-%%%&&%#=-=-~@-{{++.=%;;'',)'>',',,'),)'))>;);;;;;%;;%$%&&&=*@.+++=>)>)))));;>>;$@{{++#%;;'',;''  ",
"  ''))%>%$%))))'%>%)>&##*=-@@-#~{+-$$&#&#@@*-~~@@{{++@&$$;>;>;>;%%;)>)'%$;$;$%$%%;%$$$$$$&#==**--+++=>))>')>,))$%%&@{{++#%))),,,''  ",
"  '%)>%$$&%>)>>>%>%%%&%*#@----=~{+-$$&&#***@--~@-{{++=&$$$>%%$$;&$&%$$;$$;%$&&%####$&&$&&==@--@*@+++=>))>'),!));$$%*{{++#%'))'',>>  ",
"  %%%%%&$$%%%;>>)$$$#&#*@@----#~{+-$$#&&@**@-~---{{++$$$$%$$%$$$##&$&%)$$;%$#&##&=##&&$&#&=@--@*@+++=;))))))');%;$#@{{++#%)')'),>>  ",
"  >$$%))>%%%%%%>%$$$$#@*--@@-~#~{+~#&#*=--@~~~~--{{+->;$;>%;$$$&==#&$;>>$)%$&##=@===#&##&#==@*=#@{{+=;)))')'));;;%$*{{++#%''');,%%  ",
"  >%>)'',)$$$$$$$$$&%&#*-@--~~#~{++-*@@----~---@+{{+->;$;$%$;$$$=&#%$%%&$>%$&#####=&=&$&#===@*=#@{{+=;>')>''));%$;%={{++#%''!');%%  ",
"  )&>'>')'$&$$##&&$&##&=@=--@@=-+++.--@@*==@-@@.{{{+-%%%;$%$$$&$=$&>$$;&$%$$$$&#=#*$#&&&&&#&@@-*@{{+=;>);>')>>$$$%#*{{++#&'!]]')>>  ",
"  %>%>>'%)$$$#==#&##&&===-@@==#-{+++{{{{{{{{{{{{{{{+-%%%;$$$$&$$&=&>%&$$%$&$&##=**#=##&=##&&@@-*@{{+=;>);;>>$;>;%%#*{{++#&'!]]^,>>  ",
"  %$)$>%>%$&$$=&=&$&&====&@@==#-{+++{{{{{{{{{{{{{{{+-%;>>>;)$$%&$$$);$&%$$&&&&#&&#&$&$#=&=&&&##@-{{+=;>;);$$;''');$@{{++#&''!!''%%  ",
"  %$%$$&>#$&&$=$#&&&&&&#&&@@--=-{+++++++++++++++++++=$$%%$$&$$&&$$>$$$&#=#&&%==*#@&$>$&##&&&&&=*@{{+=;%%;$$%;;);>$#-{{++#&''>>''%%  ",
"  )$&$&%$&&&$$&=##&==##&&&@@--=-{+++{-@@@@@@@@-+{{++=$$$%$&$%$&&$%)$$&&#%&$$&=@-*#$%)$&&$$$&%&=*@{{+=;%%$$%)%$$;&#--{{++#&';;))>>>  ",
"  ##&#&$##$&>#$$&$#@&#=&&&&=&=--{++++;)',')>;;$&*{++=$$$$$&$$&$&%>;$$#&##&$&$#-~@&%>>;&&$$&#&#&=@{{+=;>>$>&>&&$&#@--{{++#&''';)>>>  ",
"  %&&&#&=&=%>&$$$$%&&&#&=&=&==--{+++@)'!!!);##&#=+++=$$;$&%$%$%$&%%$$#=##$###=@-@$$%%&$%>;$#&=#=@{{+=;)>)%$$&$#==&--{{++#&;''>;;%%  ",
"  &&=&&&&&&$&&$$>$&&=&&&&&&&&-=-{+++@)',!,>&&###=+++=$%>%$$%$%;;$$;&$&=&#==*=#@=*$$$>&$)'>>&=*@*@{{+=;)>)$$$$&#=-=@-{{++#&;;;>>%%%  ",
"  &&$&$$&$%&&&$%)$&&$&$$&$%&&-=-{+++@)>>));%$#=**+++=$$&&$$%%$;>$#&#&###==##&=@=#;$#&$$>));$=*@*@{{+=%>)))%$##$$#=--{{++#&;''';>%$  ",
"  &#$$$&#&&&$#%>>>&#$$$&#&&=&#=-{+++@);&$$$$&#==*+++-&&&&&&#$&;)>%&#===#@*#@*=-**>>;&$;>>;$$##=#@{{+=%'))%&$#==&#*@-{{++#&;;;;';$$  ",
"  ;;&&#&;;&;%&&%%&$$>>%$#&&=##=-{+++@);#$%%$&##=*+++-&&&#$$>;$%>>>&&$#=&&=###@=&&>>>&&$;;$&###=#@{{+=%''>%%$&###=@@-{{++#&;;';'%&&  ",
"  $&;;$$#$$;>%$$>&$>''%>&@==@@=-{+++@>);%%$$#=&#=+++~###&&>)'))>;%$$&#&&##&#*--*=);%$$$#&$$$&#@=@{{+=%''%%$$$&#&*@--{{++#&;;;;>%&&  ",
"  =$&;==;=$$>>$#&$$>>'>%$&==@@=-{+++@>';);$&#=@@=+++~###&$>)))>>>$>%$=##&####&@-&>>$>%$&&&%$-*#=@{{+=%'))%$$&&&&@=@-{{++#&;;;;;%&&  ",
"  ##&&#=##$#'>>%&$%>>>%$$###==#-{+++@>>%%%%&#***=+++~###&$>>)>>$;$%&&=&&&#**#*&-=%;$%&&&%%&$-*#=-{{+=%);;;$%$&#=@*@-{{++=&%;;%>$&&  ",
"  =#$$$#$=@*>>>>&&$%>%$&####==#-{+++@%$$$%&$*#&**++++##&$$>;%)%&%%&##=#=-=**=#-@=$$%&#=#$>$#@*==-{{+*$)>;&$%$&#=-@--{{++==;;;>>$$$  ",
"  #$;$#====&%&>%$$#&&$&&>=$&@@#-{+++@$$$$;%&*&=-*++++##&$%%$%$$$$%>%&#&@*#**=--=&$$%>%&&$$&=@*==-{{+*$);$$$%&#*@----{{++@=$';%%$$$  ",
"  $#=$$$$=&>)>%%$$$#=$$$$=&&@@#-{+++@$$$;)%#=*--=++++@*##$$%%$&$$$%;$**#==*@**--#$$$%%$&$&#*##=@-{{+*$;%##$&#=**-@=-{{++@=;%&%$$&&  ",
"  $&#&&%$#->>>>$>%$&#&&%$#--##=-{{++@$$;;>&#*@@-=++++@*###%#&$%%$$%%#&==@@@-@==#&%$$%%&=&&=@##@--{{+=%;$&$##$#*@*#$-{{++~=$$$$$$&&  ",
"  &&&>$&$#->>$>$%&&&&>$&$#--##=-{{++@$%%$$&=*---*+++++-@=##$##&$%&&=#=*~-**-*--@@$%&&=#&$#=#*---+{{+=%%;%$$&#=*&@*#-{{++~=$&&&#&&&  ",
"  =##>>&#-@>$&%%&#=##>>&#-@@===-{.++@$&$$$#*-@@~=+++++~~-*===========--~-@--*-@*@===========*--~+{{+=;);$%$&###=*@@-{{++~=$&&&##&&  ",
"  &#$$$&==@&$$$%>;&#$$$&==@@===-{{++@$&$$$&*---~=++++++.-------------...~-~.....~-------------++{{{+=>);>)%$&==*@@*-{{++~=&$$#$#&&  ",
"  ;#$$##@@#$&$$$%%;#$$##@@##==--{{++@$&&&=#*---~@+++++++{{{{{{{{{{{{{++++++++++++{{{{{{{{{{{{{{{{{{+=>>$%%$$####@@=-{{++~#$$$####&  ",
"  &=#$#=@@#$%%$$%;&=#$#=@@##=---{{++@$&##=*-@@-~@+++++++{{{{{{{{{{{{{{{{{{{{{{{{{{{{{{{{{{{{{{{{{{{+=>;$$$&&###=@@--{{+++=%%$%;&#$  ",
"  &##%===#=#$$%%&&&##%===#===--.{{++@&%$&#@--#--@+++++++++++++++++++++++++++++++++++++++++++++++++++=>>%$$$&#&##@---{{+++@$$%&&&#%  ",
"  ##$$==##=#$$%&&=##$$==##=----+{{++@&%$&&*--@--=+++++++@=$$$$$$$$$$$$$$$$$$$$$$$$$$$$$$$##==@++++++=>>>$$&$=###=---{{+++~$$%&=#$$  ",
"  =========================---.+{{++-%$$$==@=@***++++.$%)'',,,,,!!!,,,,,,')))))))>>>>>>%%%$$$==.++++=>>;%#&###&#=-#-{{+++~========  ",
"  ~~~~~~~~~~~~~~~~~~~~~~~~~~.++{{{++-&%$###*@-@-@+++.$),!,(!,!!!!!!!,!'!!,),'));>>>>>>>%%&$&&#=@.+++=>>%$&$&#=&##*--{{++++~~~~~~~~  ",
"  {{{{{{{{{{{{{{{{{{{{{{{{{{{{{{{{++@%%$#$#=@@-@*+++.%,!(((]!!('')'''>)));)>)))>%%;>>>>;%$&#*=*..{++=>%%&&&&###&*@--{{++++{{{{{{{{  ",
"  ++++++++++++++++++++++++++++++++++-$$&##@@#-~-=+++.%,((((/!!!,)))')>));;;;>>)%%%;;>>>%$$&&=**..{++=>%%$&##&=##*---{{+++->>>&-+{{  ",
"  +++++@$$$$$$$$$$$$$$$$$$#=@+++++++@&%$#=@**~~-@+++.%,,((/!,',))>')>>);%;;>>>>%%;;;>;;$&$$&=*-..{++=>$$##=&&=#====-{{++-;]]'>#-{{  ",
"  ++.$%)',,,!,,,,))))>>>>%%$==.+++++@$&&#=**-~-@@+++.%,/((/!,,)))>>)));;);))>>>%>>>;%$&$$$$&#**..{++=>$$#&#*===#*@@-{{++%]'';>&@{{  ",
"  +.$),!!!!!!!!!!,,))>>>>%%$==@.++++@$&&&***@-~-@+++.>,](((!!''))>>));;;;>))>>>;$%;$$$&$$$&#===..{++=>$$$&=-#@=@@@@-{{++%]];;&&@{{  ",
"  +.%,!(/,!,)'))>>>)%%%>>%&#@@..{+++-&###*-#--~--+++.),!((!,,!)>>;;)>%%%)''')>>$$$$$$$&&&&##===..{++=>&$&###==-*@=@-{{++$]'>&&@@{{  ",
"  +.%,((/!,')'>>>%%)%%%>>&&$=@..{+++~##**@--~~~--{++.),!(],,,,,)>%;>>%%;)',)));;%%%$$$$$#===**~..{++=>$&#=&&*-@*#==-{{++$]'>&&@@{{  ",
"  +.%,(((,')>>>>$>>>$%>%;&$&@@..{++++@@@----~--@.{++.),!!!!!,')>>>>>>;%%>,'')>>%$;%$$$$$$===***..{++=;%&#*=---@&&#*-{{++$]%>&=-@{{  ",
"  +.%,/(/,''>))>>))>))>%$>%&=@..{++++-@---**@-*@+{++.),!,!,,!'))>;>>>>%%>))))>>;%>&&%&&%&#==@*-..{++=;##=-@-~@-*#*--{{++$]%$$=-@{{  ",
"  +.),((!,'>))>%)')>%$%$&%&##@..{++++++..~~~...+{{++.),!,,,''')>>;;%>>%%%>))>;;;)%$$$$&$&##***-..{++=;=*~......-=@--{{++&'&#&@=@{{  ",
"  +.),(/,,(>%>)%),')$%%$$#&===..{+++++{{{{{{{{{{{{++.),,,',,'')))>%%;>;>%;>))>;;)>;$$$$$&##**=@..{++@&=-~~.....~..--{{++&;&&&@=@{{  ",
"  +.),!(!''>%>>%),'>%%&&$&#==-..{+++++{{{{{{{{{{{{++.),!)',')))>;)%%;>;>;>>>%>))>>;%$$$$&&&===-..{+++@##=@********-+{{++~#$))#-~{{  ",
"  +.),!,,''>>>)%>'))%;&%&&#==-..{+++++++++++++++++++.),,)',')'>>>>;;;;;;;;>;%))>>;;$$$&&&$=*=#-..{+++{+++++++++++++{{{+++~=@@-~+{{  ",
"  +.),!!,)'>>%>%%))%%%%$&$#@#-..{++++-@@@@@@@@-+++++.),')))))))))>>;%%$$%;;);)>>>;;$$$&&$#==@*~..{++++{{{{{{{{{{{{{{{{++{{{{{{{{{{  ",
"  +.),!'!,)>)%>%%));)>%&&##=#-..{++++;)',')>;;$&*+++.),)')')))))))>;$%$&&%%>>))';>%$&$&&&&=***-..{+++++------------------------+++  ",
"  +.),!)'))>)%%>;>>'>>;$%&&=$-..{+++@)'!!!);##&#=+++.),'))'')))))>;%$$$&&$%;)))))>%$$$&#&&#=#=-..{++++-@##$$#$$$$%%%&###----~~~-++  ",
"  +.),'>,''>>%%%>>))>%%$&$$@#-..{+++@)',!,>&&###=+++.),'%))')'')))>$$$&&$$%;>)))))$$&&####==##-..{+++@@#$$$$$$$$%%&&&&%#@@====@--+  ",
"  +.),))),'))%%$$%')'>%&#&&@@-..{+++@)>>));%$#=**+++.),)))),'!,!!')%%&&&&$$$>)>>)%$$&&&###=**=*..{+++@@#$$%%%$$%%$&&&&&#@@=---@--+  ",
"  +.),),,))))%$$&%;)))%$&&&==-..{+++@);&$$$$&#==*+++.),>>)))'((/,')%$&$&&&&%;;;>>;;&&&&##==*=@~..{+++#$$$$>>%%$$>#$&&$&#==@---@=-+  ",
"  +.),%%))'))%$&&%%))%%$##=##~..{+++@);#$%%$&##=*+++.),))))''!/(]')%$$&$&&$$%%;;;;$&&&&#*#@**-~..{+++#$$$%$$$%$$$##&&$&##=@---@=-+  ",
"  +.),)%)'!!,;$&&$%)>%%&&##==~..{+++@>);%%$$#=&#=+++.),,>>,',!,!!',)$$$$$#$$$%%$;$$&&#==**-@@@~..{++~#>$>>%%>$$$#==#&##&#==---=#-{  ",
"  +.),)>)'(/';%%&$;%>)%&&==@-~..{+++@>';);$&#=@@=+++.),,;>,',,,!!,,)%$$$$$&#$$$$$$&###=@-@-@@@~..{++~#>$>$$%$>$$$=&=&$&#===@@@=#-{  ",
"  +.),)>''!!')))>$;%%%$##==@-~..{+++@>>%%%%&#***=+++.),)>''',,,!!!')>%$$$$&##&##&#==*=*-----@-~..{++~#%%>$$%$$$&$=$#&&&&&##&@-@=-{  ",
"  +.),)%,'!!,,___;$$$$&&=@-@-~..{+++@%$$$%&$*#&**+++.),>>>',,,,,!,'>>;%$$$##=***==*@@@-----~-~~..{++~#%%>$$$$%&$$&=##&=##&&$#@-@-{  ",
"  +.),)%'',!,,__'$&$&&#==--@-~..{+++@$$$$;%&*&=-*+++.),>))'',',,,')>;;$$$$#**@*=@@@@@@@---~--~-..{++-#%>>>$%'$$>#$$&$#@#=&$;$=---{  ",
"  +.),>>'',,,)''%$#====@-----~..{+++@$$$;)%#=*--=+++.),;;),'''''>;>>%;$%$&===@@@@@--@@@@@***--~..{++-#%>>>%%$%%>&$$$$%&&#$;);$---{  ",
"  +.),)>)''!'))%$&=@#@@@@--~-~..{+++@$$;;>&#*@@-=+++.',;;))'))'');%;>;$$$$&#=@@-*@@*-@-@-*@@--~..{++=#%%%$$$&&%&&$$>$&&&&&$;$&@=-{  ",
"  +.),)%,)'');>;&=@@@@-@@-@=-~..{+++@$%%$$&=*---*+++.',>)>>>))))$$%;;;%$&$&=#=**@--*@@---@-@@-~..{++=#%%%$&&&%%&&$%)$&&&$$&$%&@=-{  ",
"  +.',%%))'>%%>%&&=@-@@-@@@@~~..{+++@$&$$$#*-@@~=+++.',)))>>>>>%%%$$;;%$$$$#=@*=---*==@---@@--~..{++=#>%$$#&&%&$#%>>>&#$$&#&&##=-{  ",
"  +.',))>))%$%>$&$#==--=-----~..{+++@$&$$$&*---~=+++.',))))>;>;%$>;$%;%$$$$&*=*=@-*#=*--@-----...{++=#>>$&%%$%$%&&%%&$%>%$#&###=-{  ",
"  +.',))>>%%>$%%&&&@=--#--@--~..{+++@$&&&=#*---~@+++.''))))>>;%$;%$$$$%%$$&&=@@@=#=#=*@@@-@---~..{++=#$>$$$$%&%>%$$>&$>'%%&#==@=-{  ",
"  +.',)')>)$)$$%%&$-=-@=@@=--~..{+++@$&##=*-@@-~@+++.')))))>>$$$$$$$$$%%$$#==-@*##&#*****-@@--...{++=#$&$$$$%%$>>$#&$%>'>%$&==@=-{  ",
"  +.'))%)>%&$$$%$&=-=##@@@~@-~..{+++@&%$&#@--#--@+++.')))>>;%$&$&&$&&$$$%$&&#@@@=#&#******-@@-...{++-#&&&&$&#$$'>>%&$%>>%$$###=#-{  ",
"  +.'))'>%&$&&$%$&=@-#&@@@@@-...{+++@&%$&&*--@--=+++.'));%%$$$&&&&&#&&&$$&&#==*@*##&=*=@@@**-~...{++-#&##$$$>>%>>>>&&$%%$&####=#-{  ",
"  +.'))>%$$#&#&$$&&@-#&=#@@-.~..{+++-%$$$==@=@***+++.'>>$$%$&&&$&####&&&$&&==*=@=###*==**@@=@~...{++~###>&$>>'>%&>%$$#&$&&>=$&@#-{  ",
"  +.'>%%%$&%####$$==@##==-@=~...{+++-&%$###*@-@-@+++.'>;$$$$&&&&##@@==&&&&&******=##*=#*@*=*=-...{++~###$&$>)'')>%%$$$#$$$$=@#@#-{  ",
"  +.'>%%$$&&=@=&$&==@=#@=-@=-...{+++@%%$#$#=@@-@*+++.)>%%$$$&&&&#@-@@=#$=##@-@*@*=*=#=**@@**-~...{++~###&$>>)))>>>$>%$&&&%$#--#=-{  ",
"  +.>>%%$$&&=-@==#--@==#=@@@~...{+++-$$&##@@#-~-=+++.>>$$$$$&&&&#--~**=#====---@*=*===*-@@@--~...{++~###&$%>>)>>$>$%&&&>$&$@--#=-{  ",
"  +.>>%$$$&#-~-===--@=-=@@@-~...{+++@&%$#=@**~~-@+++.;;%$$&&#&&=@--~~*=#==*@@@***@*==**@@@---~...{+++##&%$&>>$)$&%%&#=#>>&#@@@=@-{  ",
"  +.%%%$&&&#~~~@=@=@==@@=@@-....{+++@$&&#=**-~-@@+++.%%%$&&&#&##*-~~~@*======@*=**@*@@*@@---~....{+++##&$%&%$%%$$$%>;&#$$&=@@@=@-{  ",
"  +.%%%$&&#&-~-==@=@=--@@--~....{+++@$&&&***@-~-@+++.%%%&$&$&&###@---*=#==***@@*=-@@@@@@----~~...{+++@@##%>$%%$&$$$%%;#$##@@##=--{  ",
"  +.%%$##&$=@@===@@@@@@@@--~....{+++-&###*-#--~--+++.%%$&$&&$###=**@======@@@@@@@@-@@@@@---~~....{++{@@###$%##$%%$$%;&=$#=@@##@--{  ",
"  +.%%$$$&$======@@@@@@@@--.....{+++~##**@--~~~--{++.%%#&$$&$$============*@=**@@@*@@@@@*----.*..{+++--@##%%###$$%%&&&#%#==#==--.{  ",
"  ..============================....@==========@@....============================================....=======================@@@@-.  ",
"  ..###########################=....@###########@....###########################################=....=#########################*-.  ",
"  @@@@@@@@@@@@@@@@@@@@@@@@@@@@@@----@@@@@@@@@@@@@---@@@@@@@@@@@@@@@@@@@@@@@@@@@@@@@@@@@@@@@@@@@@@----@@@@@@@@@@@@@@@@@@@@@@@@@@@@-  ",
"  ----------------------------------@@@@@@@@@@@@@-----------------------------------------------------@@@@@@@@@@@@@@@@@@@@@@@@@@@-  ",
"                                                                                                                                    ",
"                                                                                                                                    "};
