/* XPM */
static char * bush2_xpm[] = {
"48 48 22 1",
" 	c #067C00",
".	c #496F46",
"+	c #454F4B",
"@	c #3D960E",
"#	c #49AD0F",
"$	c #65C528",
"%	c #80DF42",
"&	c #73D336",
"*	c #256F25",
"=	c #316835",
"-	c #2F6333",
";	c #256E25",
">	c #247026",
",	c #306534",
"'	c #2E6332",
")	c #226D26",
"!	c #2F6433",
"~	c #236C23",
"{	c #067A00",
"]	c #246C24",
"^	c #236D24",
"/	c #067B00",
"                                                ",
"                                                ",
"                     ...+                       ",
"                @@ ##@@@@.. ++                  ",
"                @@ ##@@@@.. ++                  ",
"             @@###$$$#$$###.@@.+++              ",
"            @##$%%%%%&##%&&$##@@@.++            ",
"            @##$%%%%%&##%&&$##@@@.++            ",
"         @##$%%%%%%%%%$$&%%%&&$##.@@.++         ",
"       @@#$$$&&%%%%%%%&&%%%&&&#$$#$$@..+        ",
"       @@#$$$&&%%%%%%%&&%%%&&&#$$#$$@..+        ",
"       &&&%%%$$&%%%&&&$$$&&&$$#$$$$$$##@        ",
"      @$$%%%%&&$&&%%%%%%&$$#$$$&&&&&$##.++      ",
"      @$$%%%%&&$&&%%%%%%&$$#$$$&&&&&$##.++      ",
"    @@$%%%%%&$$&%%%%%%%%%&&$##$&&%%%&$$@..+     ",
"    ##$&&%&&$$$%%%%%%%%%&&&$##&&&%&&%&&@..+     ",
"    ##$&&%&&$$$%%%%%%%%%&&&$##&&&%&&%&&@..+     ",
"   @###$$&$$#&&%%%%&&%&&&$$&$$&%%&%%&&&#@@.++   ",
"   @$$&%%%&&$$$&%%&%%&%%$&&$##$%%%&&&$$#@@+     ",
"   @$$&%%%&&$$$&%%&%%&%%$&&$##$%%%&&&$$#@@+     ",
"   #$$%%%%%%&##$&&&&&&$$#$$$###$$&&&$##@..@++   ",
"   @&&%&&%&&&$$&$$&$$#$$###$&&&&&$###@@#@@.+++  ",
"   @&&%&&%&&&$$&$$&$$#$$###$&&&&&$###@@#@@.+++  ",
"   #$$&&&&$$$&&%%%%&&$##$&&%%%&$$$$$###@@@+++   ",
"   @##$$$$$$&%%%&&%&&%$$$%%%%%%&&&$$$##@..@..+  ",
"   @##$$$$$$&%%%&&%&&%$$$%%%%%%&&&$$$##@..@..+  ",
"   .@@#$$$##&%%&%%&&&&$$&&&%&&&$$####$$#@@@..+  ",
"   @..@##@##$&&&&&&$$&##&&&$&&%&&&$$####@@.++.  ",
"   @..@##@##$&&&&&&$$&##&&&$&&%&&&$$####@@.++.  ",
"   @@@@@@###$$$$&&$&&$$$&$$&%%&%%&&&$##@@@...+  ",
"   @##@##$###$$#$$&##$##$&&&%%%&&&$$$@@@..@..+  ",
"   @##@##$###$$#$$&##$##$&&&%%%&&&$$$@@@..@..+  ",
"   .###@@#$$###$##$$$####$$&&&&&&$$$#...@@.+++  ",
"   .@@@##@##@###$$&&&&$$$##$$$$###@@@@@@@@.++   ",
"   .@@@##@##@###$$&&&&$$$##$$$$###@@@@@@@@.++   ",
"   +..@@@.@@#@@#$$$&&$$$#$$###@#####@..@..+..+  ",
"    ++.@@@..@@@###$##$##$##@###@@@@@...@...++   ",
"    ++.@@@..@@@###$##$##$##@###@@@@@...@...++   ",
"   +..+..@@@...@###@@####@@.@@@@@@...@@...+++   ",
"    +++.....@...@@@##@@@@@@@............+++     ",
"    +++.....@...@@@##@@@@@@@............+++     ",
"      +++....++....@@@@@....@@@..+...+++++*     ",
"       ==+..+..+...........+......+++--+;;      ",
"       ==+..+..+...........+......+++--+;;      ",
"         >++,++.+++.....+++...++++''+))         ",
"             ;;+!!++++++++++++'++~{{            ",
"             ;;+!!++++++++++++'++~{{            ",
"                   ))]^^^^^^//                  "};
